<svg xmlns="http://www.w3.org/2000/svg" viewBox="0 0 800 240" width="800" height="240" preserveAspectRatio="xMidYMid meet" role="img" aria-label="Mordida abierta anterior">
  <defs>
    <clipPath id="panel-antes">
      <rect x="0" y="0" width="360" height="220" rx="10"/>
    </clipPath>
    <clipPath id="panel-despues">
      <rect x="0" y="0" width="360" height="220" rx="10"/>
    </clipPath>
  </defs>

  <!-- Panel ANTES -->
  <g transform="translate(20, 10)">
    <rect width="360" height="220" rx="10" fill="#FBF8F3" stroke="#B8965A" stroke-width="0.5" stroke-opacity="0.4"/>
    <g clip-path="url(#panel-antes)">
      <g transform="translate(8, 8) scale(0.85)">

      <rect x="90" y="65" width="22" height="40" rx="3" fill="#F0E6D6" stroke="#1A2238" stroke-width="0.7"/>
      <rect x="118" y="65" width="22" height="40" rx="3" fill="#F0E6D6" stroke="#1A2238" stroke-width="0.7"/>
      <rect x="146" y="65" width="22" height="40" rx="3" fill="#F0E6D6" stroke="#1A2238" stroke-width="0.7"/>
      <rect x="174" y="65" width="22" height="40" rx="3" fill="#F0E6D6" stroke="#1A2238" stroke-width="0.7"/>
      <rect x="202" y="65" width="22" height="40" rx="3" fill="#F0E6D6" stroke="#1A2238" stroke-width="0.7"/>
      <rect x="230" y="65" width="22" height="40" rx="3" fill="#F0E6D6" stroke="#1A2238" stroke-width="0.7"/>
      <rect x="258" y="65" width="22" height="40" rx="3" fill="#F0E6D6" stroke="#1A2238" stroke-width="0.7"/>
      <rect x="90" y="145" width="22" height="38" rx="3" fill="#F0E6D6" stroke="#1A2238" stroke-width="0.7"/>
      <rect x="118" y="145" width="22" height="38" rx="3" fill="#F0E6D6" stroke="#1A2238" stroke-width="0.7"/>
      <rect x="146" y="145" width="22" height="38" rx="3" fill="#F0E6D6" stroke="#1A2238" stroke-width="0.7"/>
      <rect x="174" y="145" width="22" height="38" rx="3" fill="#F0E6D6" stroke="#1A2238" stroke-width="0.7"/>
      <rect x="202" y="145" width="22" height="38" rx="3" fill="#F0E6D6" stroke="#1A2238" stroke-width="0.7"/>
      <rect x="230" y="145" width="22" height="38" rx="3" fill="#F0E6D6" stroke="#1A2238" stroke-width="0.7"/>
      <rect x="258" y="145" width="22" height="38" rx="3" fill="#F0E6D6" stroke="#1A2238" stroke-width="0.7"/>
      <line x1="60" y1="115" x2="320" y2="115" stroke="#B8965A" stroke-width="0.4" stroke-dasharray="2 3"/>
      </g>
    </g>
  </g>

  <!-- Panel DESPUÉS -->
  <g transform="translate(420, 10)">
    <rect width="360" height="220" rx="10" fill="#FBF8F3" stroke="#B8965A" stroke-width="0.5" stroke-opacity="0.4"/>
    <g clip-path="url(#panel-despues)">
      <g transform="translate(8, 8) scale(0.85)">

      <rect x="90" y="80" width="22" height="40" rx="3" fill="#F0E6D6" stroke="#1A2238" stroke-width="0.7"/>
      <rect x="118" y="80" width="22" height="40" rx="3" fill="#F0E6D6" stroke="#1A2238" stroke-width="0.7"/>
      <rect x="146" y="80" width="22" height="40" rx="3" fill="#F0E6D6" stroke="#1A2238" stroke-width="0.7"/>
      <rect x="174" y="80" width="22" height="40" rx="3" fill="#F0E6D6" stroke="#1A2238" stroke-width="0.7"/>
      <rect x="202" y="80" width="22" height="40" rx="3" fill="#F0E6D6" stroke="#1A2238" stroke-width="0.7"/>
      <rect x="230" y="80" width="22" height="40" rx="3" fill="#F0E6D6" stroke="#1A2238" stroke-width="0.7"/>
      <rect x="258" y="80" width="22" height="40" rx="3" fill="#F0E6D6" stroke="#1A2238" stroke-width="0.7"/>
      <rect x="90" y="130" width="22" height="38" rx="3" fill="#F0E6D6" stroke="#1A2238" stroke-width="0.7"/>
      <rect x="118" y="130" width="22" height="38" rx="3" fill="#F0E6D6" stroke="#1A2238" stroke-width="0.7"/>
      <rect x="146" y="130" width="22" height="38" rx="3" fill="#F0E6D6" stroke="#1A2238" stroke-width="0.7"/>
      <rect x="174" y="130" width="22" height="38" rx="3" fill="#F0E6D6" stroke="#1A2238" stroke-width="0.7"/>
      <rect x="202" y="130" width="22" height="38" rx="3" fill="#F0E6D6" stroke="#1A2238" stroke-width="0.7"/>
      <rect x="230" y="130" width="22" height="38" rx="3" fill="#F0E6D6" stroke="#1A2238" stroke-width="0.7"/>
      <rect x="258" y="130" width="22" height="38" rx="3" fill="#F0E6D6" stroke="#1A2238" stroke-width="0.7"/>
      <line x1="60" y1="115" x2="320" y2="115" stroke="#B8965A" stroke-width="0.4" stroke-dasharray="2 3"/>
      </g>
    </g>
  </g>
</svg>
